<mxfile host="65bd71144e">
    <diagram id="rWbYprW9HPqFm0baPvF3" name="Page-1">
        <mxGraphModel dx="7389" dy="4339" grid="1" gridSize="10" guides="1" tooltips="1" connect="1" arrows="1" fold="1" page="1" pageScale="1" pageWidth="1169" pageHeight="827" math="0" shadow="0">
            <root>
                <mxCell id="0"/>
                <mxCell id="1" parent="0"/>
                <mxCell id="LwwEj-3nrfgpdPbPtU6o-1" value="&lt;font style=&quot;font-size: 14px&quot;&gt;Allgemeine Verwaltung - Personaleinsatz planen&lt;/font&gt;" style="rounded=0;whiteSpace=wrap;html=1;verticalAlign=top;" parent="1" vertex="1">
                    <mxGeometry x="-1000" y="90" width="1020" height="430" as="geometry"/>
                </mxCell>
                <mxCell id="LwwEj-3nrfgpdPbPtU6o-44" style="edgeStyle=none;rounded=0;orthogonalLoop=1;jettySize=auto;html=1;dashed=1;fontSize=12;startArrow=none;startFill=0;endArrow=classic;endFill=1;" parent="1" source="LwwEj-3nrfgpdPbPtU6o-31" target="LwwEj-3nrfgpdPbPtU6o-39" edge="1">
                    <mxGeometry relative="1" as="geometry">
                        <mxPoint x="-700" y="270" as="targetPoint"/>
                    </mxGeometry>
                </mxCell>
                <mxCell id="66" style="edgeStyle=none;html=1;endArrow=none;endFill=0;" edge="1" parent="1" source="LwwEj-3nrfgpdPbPtU6o-31" target="17">
                    <mxGeometry relative="1" as="geometry"/>
                </mxCell>
                <mxCell id="LwwEj-3nrfgpdPbPtU6o-31" value="Personalpläne erstellen" style="ellipse;whiteSpace=wrap;html=1;fontSize=12;" parent="1" vertex="1">
                    <mxGeometry x="-949" y="294" width="160" height="110" as="geometry"/>
                </mxCell>
                <mxCell id="LwwEj-3nrfgpdPbPtU6o-49" style="edgeStyle=none;rounded=0;orthogonalLoop=1;jettySize=auto;html=1;dashed=1;fontSize=12;startArrow=none;startFill=0;endArrow=classic;endFill=1;exitX=1;exitY=0.5;exitDx=0;exitDy=0;" parent="1" source="LwwEj-3nrfgpdPbPtU6o-34" target="LwwEj-3nrfgpdPbPtU6o-36" edge="1">
                    <mxGeometry relative="1" as="geometry"/>
                </mxCell>
                <mxCell id="LwwEj-3nrfgpdPbPtU6o-34" value="benötigte Rollen feststellen" style="ellipse;whiteSpace=wrap;html=1;fontSize=12;" parent="1" vertex="1">
                    <mxGeometry x="-609" y="225" width="160" height="110" as="geometry"/>
                </mxCell>
                <mxCell id="LwwEj-3nrfgpdPbPtU6o-40" style="edgeStyle=none;rounded=0;orthogonalLoop=1;jettySize=auto;html=1;entryX=0;entryY=0.5;entryDx=0;entryDy=0;dashed=1;fontSize=12;startArrow=none;startFill=0;endArrow=classic;endFill=1;exitX=0.963;exitY=0.345;exitDx=0;exitDy=0;exitPerimeter=0;" parent="1" source="LwwEj-3nrfgpdPbPtU6o-31" target="LwwEj-3nrfgpdPbPtU6o-34" edge="1">
                    <mxGeometry relative="1" as="geometry">
                        <mxPoint x="-568.0664111771439" y="228.1646090038107" as="sourcePoint"/>
                    </mxGeometry>
                </mxCell>
                <mxCell id="LwwEj-3nrfgpdPbPtU6o-36" value="Nachfrage prognostizieren" style="ellipse;whiteSpace=wrap;html=1;fontSize=12;" parent="1" vertex="1">
                    <mxGeometry x="-209" y="290" width="160" height="110" as="geometry"/>
                </mxCell>
                <mxCell id="LwwEj-3nrfgpdPbPtU6o-39" value="Mitarbeiter zuweisen" style="ellipse;whiteSpace=wrap;html=1;fontSize=12;" parent="1" vertex="1">
                    <mxGeometry x="-699" y="380" width="160" height="110" as="geometry"/>
                </mxCell>
                <mxCell id="LwwEj-3nrfgpdPbPtU6o-41" value="&amp;lt;&amp;lt;includes&amp;gt;&amp;gt;" style="text;html=1;strokeColor=none;fillColor=none;align=center;verticalAlign=middle;whiteSpace=wrap;rounded=0;fontSize=12;" parent="1" vertex="1">
                    <mxGeometry x="-789" y="404" width="60" height="30" as="geometry"/>
                </mxCell>
                <mxCell id="LwwEj-3nrfgpdPbPtU6o-46" value="&amp;lt;&amp;lt;includes&amp;gt;&amp;gt;" style="text;html=1;strokeColor=none;fillColor=none;align=center;verticalAlign=middle;whiteSpace=wrap;rounded=0;fontSize=12;" parent="1" vertex="1">
                    <mxGeometry x="-749" y="265" width="60" height="30" as="geometry"/>
                </mxCell>
                <mxCell id="127" style="edgeStyle=none;html=1;endArrow=none;endFill=0;" edge="1" parent="1" source="LwwEj-3nrfgpdPbPtU6o-48" target="124">
                    <mxGeometry relative="1" as="geometry"/>
                </mxCell>
                <mxCell id="LwwEj-3nrfgpdPbPtU6o-48" value="Personaleinsatz überwachen" style="ellipse;whiteSpace=wrap;html=1;fontSize=12;" parent="1" vertex="1">
                    <mxGeometry x="-949" y="140" width="160" height="110" as="geometry"/>
                </mxCell>
                <mxCell id="LwwEj-3nrfgpdPbPtU6o-51" value="&amp;lt;&amp;lt;includes&amp;gt;&amp;gt;" style="text;html=1;strokeColor=none;fillColor=none;align=center;verticalAlign=middle;whiteSpace=wrap;rounded=0;fontSize=12;" parent="1" vertex="1">
                    <mxGeometry x="-359" y="270" width="60" height="30" as="geometry"/>
                </mxCell>
                <mxCell id="2" value="Unternehmenszentrale" style="shape=umlActor;verticalLabelPosition=bottom;verticalAlign=top;html=1;outlineConnect=0;" parent="1" vertex="1">
                    <mxGeometry x="-1100" y="250" width="30" height="60" as="geometry"/>
                </mxCell>
                <mxCell id="3" style="edgeStyle=none;rounded=0;orthogonalLoop=1;jettySize=auto;html=1;fontSize=12;endArrow=none;endFill=0;exitX=0;exitY=0.5;exitDx=0;exitDy=0;" parent="1" source="LwwEj-3nrfgpdPbPtU6o-31" edge="1">
                    <mxGeometry relative="1" as="geometry">
                        <mxPoint x="-1069" y="280" as="targetPoint"/>
                        <mxPoint x="-949" y="270" as="sourcePoint"/>
                    </mxGeometry>
                </mxCell>
                <mxCell id="6" style="edgeStyle=none;html=1;endArrow=none;endFill=0;" parent="1" source="5" target="LwwEj-3nrfgpdPbPtU6o-36" edge="1">
                    <mxGeometry relative="1" as="geometry"/>
                </mxCell>
                <mxCell id="5" value="&amp;lt;&amp;lt;actor&amp;gt;&amp;gt;&lt;br&gt;&lt;b&gt;Marketing&lt;/b&gt;" style="text;html=1;align=center;verticalAlign=middle;dashed=0;fillColor=#ffffff;strokeColor=#000000;" parent="1" vertex="1">
                    <mxGeometry x="-209" y="560" width="160" height="70" as="geometry"/>
                </mxCell>
                <mxCell id="11" style="edgeStyle=none;rounded=0;orthogonalLoop=1;jettySize=auto;html=1;fontSize=12;endArrow=none;endFill=0;exitX=0;exitY=0.5;exitDx=0;exitDy=0;" parent="1" source="LwwEj-3nrfgpdPbPtU6o-48" edge="1">
                    <mxGeometry relative="1" as="geometry">
                        <mxPoint x="-1069" y="280" as="targetPoint"/>
                        <mxPoint x="-939" y="359" as="sourcePoint"/>
                    </mxGeometry>
                </mxCell>
                <mxCell id="12" value="Mitarbeiter Verfügbarkeit überprüfen" style="ellipse;whiteSpace=wrap;html=1;fontSize=12;" parent="1" vertex="1">
                    <mxGeometry x="-429" y="380" width="160" height="110" as="geometry"/>
                </mxCell>
                <mxCell id="13" style="edgeStyle=none;rounded=0;orthogonalLoop=1;jettySize=auto;html=1;dashed=1;fontSize=12;startArrow=none;startFill=0;endArrow=classic;endFill=1;entryX=0;entryY=0.5;entryDx=0;entryDy=0;exitX=1;exitY=0.5;exitDx=0;exitDy=0;" parent="1" source="LwwEj-3nrfgpdPbPtU6o-39" target="12" edge="1">
                    <mxGeometry relative="1" as="geometry">
                        <mxPoint x="-787.4019982517475" y="383.5363938575472" as="sourcePoint"/>
                        <mxPoint x="-680.5437658871797" y="420.3889445348102" as="targetPoint"/>
                    </mxGeometry>
                </mxCell>
                <mxCell id="14" value="&amp;lt;&amp;lt;includes&amp;gt;&amp;gt;" style="text;html=1;strokeColor=none;fillColor=none;align=center;verticalAlign=middle;whiteSpace=wrap;rounded=0;fontSize=12;" parent="1" vertex="1">
                    <mxGeometry x="-520" y="400" width="60" height="30" as="geometry"/>
                </mxCell>
                <mxCell id="15" value="Mitarbeiter" style="shape=umlActor;verticalLabelPosition=bottom;verticalAlign=top;html=1;outlineConnect=0;" parent="1" vertex="1">
                    <mxGeometry x="-364" y="540" width="30" height="60" as="geometry"/>
                </mxCell>
                <mxCell id="16" style="edgeStyle=none;rounded=0;orthogonalLoop=1;jettySize=auto;html=1;fontSize=12;endArrow=none;endFill=0;exitX=0.5;exitY=0;exitDx=0;exitDy=0;exitPerimeter=0;entryX=0.5;entryY=1;entryDx=0;entryDy=0;" parent="1" source="15" target="12" edge="1">
                    <mxGeometry relative="1" as="geometry">
                        <mxPoint x="-539" y="550" as="targetPoint"/>
                        <mxPoint x="-419" y="604.5" as="sourcePoint"/>
                    </mxGeometry>
                </mxCell>
                <mxCell id="17" value="Personalpläne erstellen" style="shape=umlFrame;whiteSpace=wrap;html=1;width=240;height=30;boundedLbl=1;verticalAlign=middle;align=left;spacingLeft=5;fontSize=14;" vertex="1" parent="1">
                    <mxGeometry x="-980" y="827" width="1760" height="1590" as="geometry"/>
                </mxCell>
                <mxCell id="18" value="loop Rollen" style="shape=umlFrame;whiteSpace=wrap;html=1;" vertex="1" parent="1">
                    <mxGeometry x="-824" y="1752" width="930" height="445" as="geometry"/>
                </mxCell>
                <mxCell id="19" value="loop Mietstation" style="shape=umlFrame;whiteSpace=wrap;html=1;width=70;height=30;" vertex="1" parent="1">
                    <mxGeometry x="-929" y="947" width="1605" height="1360" as="geometry"/>
                </mxCell>
                <mxCell id="20" value="opt" style="shape=umlFrame;whiteSpace=wrap;html=1;width=40;height=30;" vertex="1" parent="1">
                    <mxGeometry x="-724" y="1927" width="672.75" height="210" as="geometry"/>
                </mxCell>
                <mxCell id="21" value=":Unternehmenszentrale" style="shape=umlLifeline;perimeter=lifelinePerimeter;container=1;collapsible=0;recursiveResize=0;rounded=0;shadow=0;strokeWidth=1;size=40;" vertex="1" parent="1">
                    <mxGeometry x="-614" y="897" width="130" height="1440" as="geometry"/>
                </mxCell>
                <mxCell id="22" value="loop Mitarbeiter" style="shape=umlFrame;whiteSpace=wrap;html=1;width=70;height=30;" vertex="1" parent="21">
                    <mxGeometry x="-150" y="900" width="850" height="370" as="geometry"/>
                </mxCell>
                <mxCell id="23" value="" style="html=1;points=[];perimeter=orthogonalPerimeter;" vertex="1" parent="21">
                    <mxGeometry x="60" y="60" width="10" height="1370" as="geometry"/>
                </mxCell>
                <mxCell id="24" value="" style="html=1;points=[];perimeter=orthogonalPerimeter;fontSize=14;" vertex="1" parent="21">
                    <mxGeometry x="65.00000000000004" y="678.2" width="10" height="50" as="geometry"/>
                </mxCell>
                <mxCell id="25" value="definiereRollen()" style="html=1;verticalAlign=bottom;labelBackgroundColor=none;endArrow=block;endFill=1;rounded=0;fontSize=14;entryX=0.875;entryY=0;entryDx=0;entryDy=0;entryPerimeter=0;" edge="1" parent="21" source="23" target="24">
                    <mxGeometry x="0.2739" y="-54" width="160" relative="1" as="geometry">
                        <mxPoint x="71.21999999999991" y="649.9950000000001" as="sourcePoint"/>
                        <mxPoint x="-504.16999999999996" y="568.2" as="targetPoint"/>
                        <Array as="points">
                            <mxPoint x="115.83000000000004" y="650.2"/>
                            <mxPoint x="115.83000000000004" y="678.2"/>
                        </Array>
                        <mxPoint x="54" y="54" as="offset"/>
                    </mxGeometry>
                </mxCell>
                <mxCell id="26" value="&lt;div&gt;definiereRollen: Rolle[]&lt;/div&gt;" style="html=1;verticalAlign=bottom;labelBackgroundColor=none;endArrow=block;endFill=1;dashed=1;rounded=0;fontSize=14;" edge="1" parent="21" target="23">
                    <mxGeometry x="0.1339" y="-74" width="160" relative="1" as="geometry">
                        <mxPoint x="80.83000000000004" y="728.2" as="sourcePoint"/>
                        <mxPoint x="70.00000000000011" y="753.315" as="targetPoint"/>
                        <Array as="points">
                            <mxPoint x="115.83000000000004" y="728.2"/>
                            <mxPoint x="115.83000000000004" y="753.2"/>
                        </Array>
                        <mxPoint x="74" y="74" as="offset"/>
                    </mxGeometry>
                </mxCell>
                <mxCell id="27" value="[ist verfügbar]" style="text;html=1;strokeColor=none;fillColor=none;align=center;verticalAlign=middle;whiteSpace=wrap;rounded=0;" vertex="1" parent="21">
                    <mxGeometry x="-60" y="1110" width="110" height="30" as="geometry"/>
                </mxCell>
                <mxCell id="28" value="[passende Rolle]" style="text;html=1;strokeColor=none;fillColor=none;align=center;verticalAlign=middle;whiteSpace=wrap;rounded=0;" vertex="1" parent="21">
                    <mxGeometry x="-70" y="1030" width="110" height="30" as="geometry"/>
                </mxCell>
                <mxCell id="29" value="break" style="shape=umlFrame;whiteSpace=wrap;html=1;width=40;height=30;" vertex="1" parent="21">
                    <mxGeometry x="-90" y="1110" width="480" height="70" as="geometry"/>
                </mxCell>
                <mxCell id="30" value=":Personalplan" style="shape=umlLifeline;perimeter=lifelinePerimeter;container=1;collapsible=0;recursiveResize=0;rounded=0;shadow=0;strokeWidth=1;" vertex="1" parent="1">
                    <mxGeometry x="-354" y="957" width="100" height="1380" as="geometry"/>
                </mxCell>
                <mxCell id="31" value="" style="html=1;points=[];perimeter=orthogonalPerimeter;" vertex="1" parent="30">
                    <mxGeometry x="45" y="60" width="10" height="70" as="geometry"/>
                </mxCell>
                <mxCell id="32" value="" style="html=1;points=[];perimeter=orthogonalPerimeter;" vertex="1" parent="30">
                    <mxGeometry x="85" y="1080" width="10" height="20" as="geometry"/>
                </mxCell>
                <mxCell id="33" value=":Mitarbeiter" style="shape=umlLifeline;perimeter=lifelinePerimeter;whiteSpace=wrap;html=1;container=1;collapsible=0;recursiveResize=0;outlineConnect=0;" vertex="1" parent="1">
                    <mxGeometry x="-164" y="897" width="100" height="1440" as="geometry"/>
                </mxCell>
                <mxCell id="34" value="" style="html=1;points=[];perimeter=orthogonalPerimeter;" vertex="1" parent="33">
                    <mxGeometry x="45" y="960" width="10" height="40" as="geometry"/>
                </mxCell>
                <mxCell id="35" value="" style="html=1;points=[];perimeter=orthogonalPerimeter;" vertex="1" parent="33">
                    <mxGeometry x="45" y="1050" width="10" height="50" as="geometry"/>
                </mxCell>
                <mxCell id="36" value="create" style="endArrow=open;endSize=12;dashed=1;html=1;rounded=0;" edge="1" parent="1" source="23">
                    <mxGeometry x="-0.0256" y="10" width="160" relative="1" as="geometry">
                        <mxPoint x="-544" y="967" as="sourcePoint"/>
                        <mxPoint x="-354" y="977" as="targetPoint"/>
                        <Array as="points">
                            <mxPoint x="-454" y="977"/>
                        </Array>
                        <mxPoint as="offset"/>
                    </mxGeometry>
                </mxCell>
                <mxCell id="37" value="setzeStartdatum()" style="html=1;verticalAlign=bottom;endArrow=block;rounded=0;" edge="1" parent="1" source="23" target="30">
                    <mxGeometry width="80" relative="1" as="geometry">
                        <mxPoint x="-524" y="1047" as="sourcePoint"/>
                        <mxPoint x="-444" y="1047" as="targetPoint"/>
                        <Array as="points">
                            <mxPoint x="-414" y="1017"/>
                        </Array>
                    </mxGeometry>
                </mxCell>
                <mxCell id="38" value="" style="html=1;verticalAlign=bottom;endArrow=open;dashed=1;endSize=8;rounded=0;" edge="1" parent="1" source="31" target="23">
                    <mxGeometry relative="1" as="geometry">
                        <mxPoint x="-394" y="1067" as="sourcePoint"/>
                        <mxPoint x="-474" y="1067" as="targetPoint"/>
                        <Array as="points">
                            <mxPoint x="-434" y="1037"/>
                        </Array>
                    </mxGeometry>
                </mxCell>
                <mxCell id="39" value="setzeEnddatum()" style="html=1;verticalAlign=bottom;endArrow=block;rounded=0;" edge="1" parent="1" source="23" target="31">
                    <mxGeometry width="80" relative="1" as="geometry">
                        <mxPoint x="-404" y="1167" as="sourcePoint"/>
                        <mxPoint x="-324" y="1167" as="targetPoint"/>
                        <Array as="points">
                            <mxPoint x="-434" y="1067"/>
                        </Array>
                    </mxGeometry>
                </mxCell>
                <mxCell id="40" value="" style="html=1;verticalAlign=bottom;endArrow=open;dashed=1;endSize=8;rounded=0;" edge="1" parent="1" source="31" target="23">
                    <mxGeometry relative="1" as="geometry">
                        <mxPoint x="-324" y="1167" as="sourcePoint"/>
                        <mxPoint x="-404" y="1167" as="targetPoint"/>
                        <Array as="points">
                            <mxPoint x="-424" y="1087"/>
                        </Array>
                    </mxGeometry>
                </mxCell>
                <mxCell id="41" value="nachfragePrognostizieren()" style="html=1;verticalAlign=bottom;labelBackgroundColor=none;endArrow=block;endFill=1;rounded=0;fontSize=14;entryX=0.009;entryY=-0.002;entryDx=0;entryDy=0;entryPerimeter=0;" edge="1" parent="1" source="23" target="43">
                    <mxGeometry x="-0.6784" width="160" relative="1" as="geometry">
                        <mxPoint x="-524" y="1158.9999999999998" as="sourcePoint"/>
                        <mxPoint x="526" y="1159" as="targetPoint"/>
                        <mxPoint x="-1" as="offset"/>
                    </mxGeometry>
                </mxCell>
                <mxCell id="42" value=":Marketing" style="shape=umlLifeline;perimeter=lifelinePerimeter;whiteSpace=wrap;html=1;container=1;collapsible=0;recursiveResize=0;outlineConnect=0;lifelineDashed=1;fontSize=14;size=40;" vertex="1" parent="1">
                    <mxGeometry x="56" y="897" width="180" height="1440" as="geometry"/>
                </mxCell>
                <mxCell id="43" value="" style="html=1;points=[];perimeter=orthogonalPerimeter;fontSize=14;" vertex="1" parent="42">
                    <mxGeometry x="84" y="263" width="10" height="315" as="geometry"/>
                </mxCell>
                <mxCell id="44" value="" style="html=1;points=[];perimeter=orthogonalPerimeter;fontSize=14;" vertex="1" parent="42">
                    <mxGeometry x="89" y="478" width="10" height="50" as="geometry"/>
                </mxCell>
                <mxCell id="45" value="vergangeneNachfrageAbrufen()" style="html=1;verticalAlign=bottom;labelBackgroundColor=none;endArrow=block;endFill=1;rounded=0;fontSize=14;entryX=0.875;entryY=0;entryDx=0;entryDy=0;entryPerimeter=0;exitX=1.039;exitY=0.593;exitDx=0;exitDy=0;exitPerimeter=0;" edge="1" parent="42" source="43" target="44">
                    <mxGeometry x="0.1503" y="120" width="160" relative="1" as="geometry">
                        <mxPoint x="99" y="448" as="sourcePoint"/>
                        <mxPoint x="249" y="448" as="targetPoint"/>
                        <Array as="points">
                            <mxPoint x="139" y="450"/>
                            <mxPoint x="139" y="478"/>
                        </Array>
                        <mxPoint as="offset"/>
                    </mxGeometry>
                </mxCell>
                <mxCell id="46" value="&lt;div&gt;vergangeneNachfrageAbrufen:&lt;/div&gt;&lt;div&gt;int&lt;br&gt;&lt;/div&gt;" style="html=1;verticalAlign=bottom;labelBackgroundColor=none;endArrow=block;endFill=1;dashed=1;rounded=0;fontSize=14;entryX=0.917;entryY=0.921;entryDx=0;entryDy=0;entryPerimeter=0;" edge="1" parent="42" target="43">
                    <mxGeometry x="0.1339" y="121" width="160" relative="1" as="geometry">
                        <mxPoint x="104" y="528" as="sourcePoint"/>
                        <mxPoint x="264" y="528" as="targetPoint"/>
                        <Array as="points">
                            <mxPoint x="139" y="528"/>
                            <mxPoint x="139" y="553"/>
                        </Array>
                        <mxPoint x="120" y="-106" as="offset"/>
                    </mxGeometry>
                </mxCell>
                <mxCell id="47" value=":Nachrichtenplattform" style="shape=umlLifeline;perimeter=lifelinePerimeter;whiteSpace=wrap;html=1;container=1;collapsible=0;recursiveResize=0;outlineConnect=0;lifelineDashed=1;fontSize=14;" vertex="1" parent="1">
                    <mxGeometry x="356" y="897" width="180" height="1440" as="geometry"/>
                </mxCell>
                <mxCell id="48" value="" style="html=1;points=[];perimeter=orthogonalPerimeter;fontSize=14;" vertex="1" parent="47">
                    <mxGeometry x="84" y="278" width="10" height="50" as="geometry"/>
                </mxCell>
                <mxCell id="49" value="" style="html=1;points=[];perimeter=orthogonalPerimeter;fontSize=14;" vertex="1" parent="47">
                    <mxGeometry x="84" y="368" width="10" height="50" as="geometry"/>
                </mxCell>
                <mxCell id="50" value="besondereEreignisseAbfragen()" style="html=1;verticalAlign=bottom;labelBackgroundColor=none;endArrow=block;endFill=1;rounded=0;fontSize=14;entryX=0.178;entryY=0.004;entryDx=0;entryDy=0;entryPerimeter=0;" edge="1" parent="1" source="43" target="48">
                    <mxGeometry width="160" relative="1" as="geometry">
                        <mxPoint x="185" y="1205" as="sourcePoint"/>
                        <mxPoint x="345" y="1205" as="targetPoint"/>
                    </mxGeometry>
                </mxCell>
                <mxCell id="51" value="" style="html=1;verticalAlign=bottom;labelBackgroundColor=none;endArrow=block;endFill=1;dashed=1;rounded=0;fontSize=14;entryX=1.1;entryY=0.198;entryDx=0;entryDy=0;entryPerimeter=0;" edge="1" parent="1" source="48" target="43">
                    <mxGeometry width="160" relative="1" as="geometry">
                        <mxPoint x="445" y="1222.34" as="sourcePoint"/>
                        <mxPoint x="180" y="1222.34" as="targetPoint"/>
                    </mxGeometry>
                </mxCell>
                <mxCell id="52" value="wetterAbfragen()" style="html=1;verticalAlign=bottom;labelBackgroundColor=none;endArrow=block;endFill=1;rounded=0;fontSize=14;exitX=0.946;exitY=0.33;exitDx=0;exitDy=0;exitPerimeter=0;" edge="1" parent="1" source="43">
                    <mxGeometry width="160" relative="1" as="geometry">
                        <mxPoint x="181.04000000000042" y="1264.9599999999998" as="sourcePoint"/>
                        <mxPoint x="440" y="1264.96" as="targetPoint"/>
                    </mxGeometry>
                </mxCell>
                <mxCell id="53" value="" style="html=1;verticalAlign=bottom;labelBackgroundColor=none;endArrow=block;endFill=1;dashed=1;rounded=0;fontSize=14;exitX=-0.193;exitY=0.886;exitDx=0;exitDy=0;exitPerimeter=0;entryX=0.918;entryY=0.493;entryDx=0;entryDy=0;entryPerimeter=0;" edge="1" parent="1" target="43">
                    <mxGeometry width="160" relative="1" as="geometry">
                        <mxPoint x="438.0700000000006" y="1314.3400000000001" as="sourcePoint"/>
                        <mxPoint x="180" y="1314.34" as="targetPoint"/>
                    </mxGeometry>
                </mxCell>
                <mxCell id="54" value="nachfragePrognostizieren: int" style="html=1;verticalAlign=bottom;labelBackgroundColor=none;endArrow=block;endFill=1;dashed=1;rounded=0;fontSize=14;exitX=-0.1;exitY=0.997;exitDx=0;exitDy=0;exitPerimeter=0;" edge="1" parent="1" source="43" target="23">
                    <mxGeometry x="0.6486" width="160" relative="1" as="geometry">
                        <mxPoint x="181" y="1287" as="sourcePoint"/>
                        <mxPoint x="-524" y="1474" as="targetPoint"/>
                        <mxPoint x="1" as="offset"/>
                    </mxGeometry>
                </mxCell>
                <mxCell id="55" value="getRolle()" style="html=1;verticalAlign=bottom;endArrow=block;rounded=0;" edge="1" parent="1" source="23" target="34">
                    <mxGeometry width="80" relative="1" as="geometry">
                        <mxPoint x="-504" y="1859" as="sourcePoint"/>
                        <mxPoint x="-320" y="1859" as="targetPoint"/>
                        <Array as="points">
                            <mxPoint x="-445" y="1859"/>
                        </Array>
                    </mxGeometry>
                </mxCell>
                <mxCell id="56" style="edgeStyle=none;html=1;dashed=1;" edge="1" parent="1">
                    <mxGeometry relative="1" as="geometry">
                        <mxPoint x="-119" y="1895" as="sourcePoint"/>
                        <mxPoint x="-544" y="1895" as="targetPoint"/>
                    </mxGeometry>
                </mxCell>
                <mxCell id="57" value="getRolle: Rolle" style="edgeLabel;html=1;align=center;verticalAlign=middle;resizable=0;points=[];" vertex="1" connectable="0" parent="56">
                    <mxGeometry x="0.0494" y="1" relative="1" as="geometry">
                        <mxPoint x="17" y="-11" as="offset"/>
                    </mxGeometry>
                </mxCell>
                <mxCell id="58" value="verfuegbarkeitPruefen()" style="html=1;verticalAlign=bottom;endArrow=block;rounded=0;" edge="1" parent="1">
                    <mxGeometry width="80" relative="1" as="geometry">
                        <mxPoint x="-544" y="1949" as="sourcePoint"/>
                        <mxPoint x="-119" y="1949" as="targetPoint"/>
                        <Array as="points">
                            <mxPoint x="-214" y="1949"/>
                        </Array>
                    </mxGeometry>
                </mxCell>
                <mxCell id="59" value="verfuegbarkeitPruefen(): boolean" style="html=1;verticalAlign=bottom;endArrow=open;dashed=1;endSize=8;rounded=0;" edge="1" parent="1">
                    <mxGeometry relative="1" as="geometry">
                        <mxPoint x="-119" y="1994" as="sourcePoint"/>
                        <mxPoint x="-544" y="1994" as="targetPoint"/>
                        <Array as="points">
                            <mxPoint x="-204" y="1994"/>
                        </Array>
                    </mxGeometry>
                </mxCell>
                <mxCell id="60" value="zuweisen()" style="html=1;verticalAlign=bottom;endArrow=block;rounded=0;" edge="1" parent="1" source="23" target="32">
                    <mxGeometry x="0.0909" width="80" relative="1" as="geometry">
                        <mxPoint x="-514" y="2037" as="sourcePoint"/>
                        <mxPoint x="-279" y="2037" as="targetPoint"/>
                        <Array as="points">
                            <mxPoint x="-404" y="2037"/>
                        </Array>
                        <mxPoint as="offset"/>
                    </mxGeometry>
                </mxCell>
                <mxCell id="61" value="" style="html=1;verticalAlign=bottom;endArrow=open;dashed=1;endSize=8;rounded=0;" edge="1" parent="1" source="32" target="23">
                    <mxGeometry relative="1" as="geometry">
                        <mxPoint x="-279" y="2057" as="sourcePoint"/>
                        <mxPoint x="-514" y="2057" as="targetPoint"/>
                        <Array as="points">
                            <mxPoint x="-394" y="2057"/>
                        </Array>
                    </mxGeometry>
                </mxCell>
                <mxCell id="62" value=":Mietstation" style="shape=umlLifeline;perimeter=lifelinePerimeter;whiteSpace=wrap;html=1;container=1;collapsible=0;recursiveResize=0;outlineConnect=0;lifelineDashed=1;fontSize=14;" vertex="1" parent="1">
                    <mxGeometry x="566" y="897" width="180" height="1440" as="geometry"/>
                </mxCell>
                <mxCell id="63" value="" style="html=1;points=[];perimeter=orthogonalPerimeter;fontSize=14;" vertex="1" parent="62">
                    <mxGeometry x="85" y="1360" width="10" height="30" as="geometry"/>
                </mxCell>
                <mxCell id="64" value="personalplanHinzufügen()" style="html=1;verticalAlign=bottom;endArrow=block;rounded=0;" edge="1" parent="1" source="23" target="62">
                    <mxGeometry width="80" relative="1" as="geometry">
                        <mxPoint x="-514" y="2257" as="sourcePoint"/>
                        <mxPoint x="-239" y="2257" as="targetPoint"/>
                        <Array as="points">
                            <mxPoint x="-374" y="2257"/>
                        </Array>
                    </mxGeometry>
                </mxCell>
                <mxCell id="65" value="" style="html=1;verticalAlign=bottom;endArrow=open;dashed=1;endSize=8;rounded=0;" edge="1" parent="1">
                    <mxGeometry relative="1" as="geometry">
                        <mxPoint x="651" y="2286" as="sourcePoint"/>
                        <mxPoint x="-544" y="2286" as="targetPoint"/>
                        <Array as="points"/>
                    </mxGeometry>
                </mxCell>
                <mxCell id="126" value="" style="group" vertex="1" connectable="0" parent="1">
                    <mxGeometry x="340" y="-335" width="1730" height="1060" as="geometry"/>
                </mxCell>
                <mxCell id="124" value="" style="rounded=1;whiteSpace=wrap;html=1;" vertex="1" parent="126">
                    <mxGeometry width="1730" height="1060" as="geometry"/>
                </mxCell>
                <mxCell id="68" value="" style="ellipse;fillColor=#000000;strokeColor=none;" vertex="1" parent="126">
                    <mxGeometry x="120" y="85.06999999999994" width="30" height="30" as="geometry"/>
                </mxCell>
                <mxCell id="69" value="" style="ellipse;html=1;shape=endState;fillColor=#000000;strokeColor=#000000;" vertex="1" parent="126">
                    <mxGeometry x="120" y="180.06999999999994" width="30" height="30" as="geometry"/>
                </mxCell>
                <mxCell id="71" value="Mietstationen abrufen" style="rounded=1;whiteSpace=wrap;html=1;" vertex="1" parent="126">
                    <mxGeometry x="260" y="70.06999999999994" width="120" height="60" as="geometry"/>
                </mxCell>
                <mxCell id="67" value="" style="edgeStyle=orthogonalEdgeStyle;html=1;rounded=0;" edge="1" parent="126" source="68" target="71">
                    <mxGeometry relative="1" as="geometry"/>
                </mxCell>
                <mxCell id="74" style="edgeStyle=orthogonalEdgeStyle;rounded=0;html=1;entryX=1;entryY=0.5;entryDx=0;entryDy=0;" edge="1" parent="126" source="76" target="69">
                    <mxGeometry relative="1" as="geometry"/>
                </mxCell>
                <mxCell id="75" value="[else]" style="edgeLabel;html=1;align=center;verticalAlign=middle;resizable=0;points=[];" vertex="1" connectable="0" parent="74">
                    <mxGeometry x="-0.1277" relative="1" as="geometry">
                        <mxPoint x="12" y="-15" as="offset"/>
                    </mxGeometry>
                </mxCell>
                <mxCell id="76" value="" style="rhombus;" vertex="1" parent="126">
                    <mxGeometry x="480" y="180.06999999999994" width="30" height="30" as="geometry"/>
                </mxCell>
                <mxCell id="70" style="edgeStyle=orthogonalEdgeStyle;html=1;entryX=0.5;entryY=0;entryDx=0;entryDy=0;rounded=0;" edge="1" parent="126" source="71" target="76">
                    <mxGeometry relative="1" as="geometry"/>
                </mxCell>
                <mxCell id="78" value="Mitarbeiter abrufen" style="rounded=1;whiteSpace=wrap;html=1;" vertex="1" parent="126">
                    <mxGeometry x="823" y="165.06999999999994" width="120" height="60" as="geometry"/>
                </mxCell>
                <mxCell id="83" value="" style="rhombus;" vertex="1" parent="126">
                    <mxGeometry x="973" y="180.06999999999994" width="30" height="30" as="geometry"/>
                </mxCell>
                <mxCell id="77" value="" style="edgeStyle=orthogonalEdgeStyle;rounded=0;html=1;entryX=0;entryY=0.5;entryDx=0;entryDy=0;" edge="1" parent="126" source="78" target="83">
                    <mxGeometry relative="1" as="geometry">
                        <mxPoint x="953" y="195.06999999999994" as="targetPoint"/>
                    </mxGeometry>
                </mxCell>
                <mxCell id="85" value="Rolle abrufen" style="rounded=1;whiteSpace=wrap;html=1;" vertex="1" parent="126">
                    <mxGeometry x="1170" y="165.06999999999994" width="120" height="60" as="geometry"/>
                </mxCell>
                <mxCell id="79" value="" style="edgeStyle=orthogonalEdgeStyle;rounded=0;html=1;" edge="1" parent="126" source="83" target="85">
                    <mxGeometry relative="1" as="geometry"/>
                </mxCell>
                <mxCell id="80" value="[weiterer Mitarbeiter]" style="edgeLabel;html=1;align=center;verticalAlign=middle;resizable=0;points=[];" vertex="1" connectable="0" parent="79">
                    <mxGeometry x="-0.2618" relative="1" as="geometry">
                        <mxPoint x="16" y="-15" as="offset"/>
                    </mxGeometry>
                </mxCell>
                <mxCell id="88" value="Auslastung abfragen" style="rounded=1;whiteSpace=wrap;html=1;" vertex="1" parent="126">
                    <mxGeometry x="1340" y="165.06999999999994" width="120" height="60" as="geometry"/>
                </mxCell>
                <mxCell id="84" value="" style="edgeStyle=orthogonalEdgeStyle;rounded=0;html=1;" edge="1" parent="126" source="85" target="88">
                    <mxGeometry relative="1" as="geometry"/>
                </mxCell>
                <mxCell id="89" style="edgeStyle=orthogonalEdgeStyle;rounded=0;html=1;entryX=0;entryY=0.5;entryDx=0;entryDy=0;" edge="1" parent="126" source="90" target="78">
                    <mxGeometry relative="1" as="geometry"/>
                </mxCell>
                <mxCell id="90" value="aktuellen Personalplan abrufen" style="rounded=1;whiteSpace=wrap;html=1;" vertex="1" parent="126">
                    <mxGeometry x="663" y="165.06999999999994" width="120" height="60" as="geometry"/>
                </mxCell>
                <mxCell id="72" value="" style="edgeStyle=orthogonalEdgeStyle;rounded=0;html=1;entryX=0;entryY=0.5;entryDx=0;entryDy=0;" edge="1" parent="126" source="76" target="90">
                    <mxGeometry relative="1" as="geometry">
                        <mxPoint x="610" y="195.06999999999994" as="targetPoint"/>
                    </mxGeometry>
                </mxCell>
                <mxCell id="73" value="[weitere Mietstation]" style="edgeLabel;html=1;align=center;verticalAlign=middle;resizable=0;points=[];" vertex="1" connectable="0" parent="72">
                    <mxGeometry x="-0.2422" y="-5" relative="1" as="geometry">
                        <mxPoint x="4" y="-20" as="offset"/>
                    </mxGeometry>
                </mxCell>
                <mxCell id="91" style="edgeStyle=orthogonalEdgeStyle;rounded=0;html=1;entryX=0.5;entryY=0;entryDx=0;entryDy=0;" edge="1" parent="126" source="92" target="83">
                    <mxGeometry relative="1" as="geometry">
                        <Array as="points">
                            <mxPoint x="1560" y="80.06999999999994"/>
                            <mxPoint x="988" y="80.06999999999994"/>
                        </Array>
                    </mxGeometry>
                </mxCell>
                <mxCell id="92" value="Rollen Auslastung hinzufügen" style="rounded=1;whiteSpace=wrap;html=1;" vertex="1" parent="126">
                    <mxGeometry x="1500" y="165.06999999999994" width="120" height="60" as="geometry"/>
                </mxCell>
                <mxCell id="86" value="" style="edgeStyle=orthogonalEdgeStyle;rounded=0;html=1;" edge="1" parent="126" source="88" target="92">
                    <mxGeometry relative="1" as="geometry"/>
                </mxCell>
                <mxCell id="94" value="&amp;lt;&amp;lt;datastore&amp;gt;&amp;gt;&lt;br&gt;Rollen Auslastung" style="whiteSpace=wrap;html=1;" vertex="1" parent="126">
                    <mxGeometry x="1500" y="270.06999999999994" width="120" height="60" as="geometry"/>
                </mxCell>
                <mxCell id="87" value="" style="edgeStyle=orthogonalEdgeStyle;rounded=0;html=1;exitX=0.5;exitY=1;exitDx=0;exitDy=0;" edge="1" parent="126" source="92" target="94">
                    <mxGeometry relative="1" as="geometry"/>
                </mxCell>
                <mxCell id="95" value="RA" style="ellipse;fillColor=#ffffff;strokeColor=#000000;" vertex="1" parent="126">
                    <mxGeometry x="1545" y="370.06999999999994" width="30" height="30" as="geometry"/>
                </mxCell>
                <mxCell id="93" style="edgeStyle=orthogonalEdgeStyle;rounded=0;html=1;entryX=0.5;entryY=0;entryDx=0;entryDy=0;" edge="1" parent="126" source="94" target="95">
                    <mxGeometry relative="1" as="geometry"/>
                </mxCell>
                <mxCell id="97" value="Rollen Auslatung abrufen" style="rounded=1;whiteSpace=wrap;html=1;" vertex="1" parent="126">
                    <mxGeometry x="928" y="470.07000000000016" width="120" height="60" as="geometry"/>
                </mxCell>
                <mxCell id="98" style="edgeStyle=orthogonalEdgeStyle;rounded=0;html=1;entryX=1;entryY=0.5;entryDx=0;entryDy=0;" edge="1" parent="126" source="99" target="97">
                    <mxGeometry relative="1" as="geometry"/>
                </mxCell>
                <mxCell id="99" value="RA" style="ellipse;fillColor=#ffffff;strokeColor=#000000;" vertex="1" parent="126">
                    <mxGeometry x="1120" y="485.07000000000016" width="30" height="30" as="geometry"/>
                </mxCell>
                <mxCell id="102" style="edgeStyle=orthogonalEdgeStyle;rounded=0;html=1;entryX=0.5;entryY=1;entryDx=0;entryDy=0;" edge="1" parent="126" source="104" target="76">
                    <mxGeometry relative="1" as="geometry">
                        <mxPoint x="988" y="510.07000000000016" as="targetPoint"/>
                        <Array as="points"/>
                    </mxGeometry>
                </mxCell>
                <mxCell id="103" value="[else]" style="edgeLabel;html=1;align=center;verticalAlign=middle;resizable=0;points=[];" vertex="1" connectable="0" parent="102">
                    <mxGeometry x="-0.9202" y="2" relative="1" as="geometry">
                        <mxPoint x="-45" y="-17" as="offset"/>
                    </mxGeometry>
                </mxCell>
                <mxCell id="104" value="" style="rhombus;" vertex="1" parent="126">
                    <mxGeometry x="973" y="555.0700000000002" width="30" height="30" as="geometry"/>
                </mxCell>
                <mxCell id="96" style="edgeStyle=orthogonalEdgeStyle;rounded=0;html=1;entryX=0.5;entryY=0;entryDx=0;entryDy=0;" edge="1" parent="126" source="97" target="104">
                    <mxGeometry relative="1" as="geometry"/>
                </mxCell>
                <mxCell id="106" value="Rollen Auslatung mit Fahrten und Fahrzeugen vergleichen" style="rounded=1;whiteSpace=wrap;html=1;" vertex="1" parent="126">
                    <mxGeometry x="928" y="665.0700000000002" width="120" height="60" as="geometry"/>
                </mxCell>
                <mxCell id="100" value="" style="edgeStyle=orthogonalEdgeStyle;rounded=0;html=1;entryX=0.5;entryY=0;entryDx=0;entryDy=0;" edge="1" parent="126" source="104" target="106">
                    <mxGeometry relative="1" as="geometry">
                        <mxPoint x="1203" y="490.07000000000016" as="targetPoint"/>
                    </mxGeometry>
                </mxCell>
                <mxCell id="101" value="[weitere Rolle]" style="edgeLabel;html=1;align=center;verticalAlign=middle;resizable=0;points=[];" vertex="1" connectable="0" parent="100">
                    <mxGeometry x="-0.2618" relative="1" as="geometry">
                        <mxPoint x="42" y="1" as="offset"/>
                    </mxGeometry>
                </mxCell>
                <mxCell id="108" value="Fahrten abfragen" style="rounded=1;whiteSpace=wrap;html=1;" vertex="1" parent="126">
                    <mxGeometry x="928" y="250.06999999999994" width="120" height="60" as="geometry"/>
                </mxCell>
                <mxCell id="81" style="edgeStyle=orthogonalEdgeStyle;rounded=0;html=1;entryX=0.5;entryY=0;entryDx=0;entryDy=0;" edge="1" parent="126" source="83" target="108">
                    <mxGeometry relative="1" as="geometry">
                        <mxPoint x="988" y="270.06999999999994" as="targetPoint"/>
                        <Array as="points"/>
                    </mxGeometry>
                </mxCell>
                <mxCell id="82" value="[else]" style="edgeLabel;html=1;align=center;verticalAlign=middle;resizable=0;points=[];" vertex="1" connectable="0" parent="81">
                    <mxGeometry x="-0.9202" y="2" relative="1" as="geometry">
                        <mxPoint x="13" y="16" as="offset"/>
                    </mxGeometry>
                </mxCell>
                <mxCell id="109" style="edgeStyle=orthogonalEdgeStyle;rounded=0;html=1;" edge="1" parent="126" source="110" target="97">
                    <mxGeometry relative="1" as="geometry"/>
                </mxCell>
                <mxCell id="110" value="Fahrzeuge abfragen" style="rounded=1;whiteSpace=wrap;html=1;" vertex="1" parent="126">
                    <mxGeometry x="928" y="370.06999999999994" width="120" height="60" as="geometry"/>
                </mxCell>
                <mxCell id="107" style="edgeStyle=orthogonalEdgeStyle;rounded=0;html=1;entryX=0.5;entryY=0;entryDx=0;entryDy=0;" edge="1" parent="126" source="108" target="110">
                    <mxGeometry relative="1" as="geometry"/>
                </mxCell>
                <mxCell id="117" value="" style="rhombus;" vertex="1" parent="126">
                    <mxGeometry x="973" y="760.0700000000002" width="30" height="30" as="geometry"/>
                </mxCell>
                <mxCell id="105" style="edgeStyle=orthogonalEdgeStyle;rounded=0;html=1;entryX=0.5;entryY=0;entryDx=0;entryDy=0;" edge="1" parent="126" source="106" target="117">
                    <mxGeometry relative="1" as="geometry"/>
                </mxCell>
                <mxCell id="119" value="Rolle großzügiger bemessen" style="rounded=1;whiteSpace=wrap;html=1;" vertex="1" parent="126">
                    <mxGeometry x="1075" y="810.0700000000002" width="120" height="60" as="geometry"/>
                </mxCell>
                <mxCell id="111" value="" style="edgeStyle=orthogonalEdgeStyle;rounded=0;html=1;" edge="1" parent="126" source="117" target="119">
                    <mxGeometry relative="1" as="geometry"/>
                </mxCell>
                <mxCell id="112" value="[Rollen Auslastung zu groß]" style="edgeLabel;html=1;align=center;verticalAlign=middle;resizable=0;points=[];" vertex="1" connectable="0" parent="111">
                    <mxGeometry x="-0.4201" y="3" relative="1" as="geometry">
                        <mxPoint x="29" y="-12" as="offset"/>
                    </mxGeometry>
                </mxCell>
                <mxCell id="121" value="Rolle weniger großzügig bemessen" style="rounded=1;whiteSpace=wrap;html=1;" vertex="1" parent="126">
                    <mxGeometry x="800" y="810.0700000000002" width="120" height="60" as="geometry"/>
                </mxCell>
                <mxCell id="113" style="edgeStyle=orthogonalEdgeStyle;rounded=0;html=1;entryX=0.5;entryY=0;entryDx=0;entryDy=0;" edge="1" parent="126" source="117" target="121">
                    <mxGeometry relative="1" as="geometry"/>
                </mxCell>
                <mxCell id="114" value="[Rollen Auslastung zu klein]" style="edgeLabel;html=1;align=center;verticalAlign=middle;resizable=0;points=[];" vertex="1" connectable="0" parent="113">
                    <mxGeometry x="-0.0004" relative="1" as="geometry">
                        <mxPoint x="-22" y="-15" as="offset"/>
                    </mxGeometry>
                </mxCell>
                <mxCell id="122" style="edgeStyle=orthogonalEdgeStyle;rounded=0;html=1;entryX=1;entryY=0.5;entryDx=0;entryDy=0;" edge="1" parent="126" source="123" target="104">
                    <mxGeometry relative="1" as="geometry">
                        <Array as="points">
                            <mxPoint x="988" y="1010.0699999999997"/>
                            <mxPoint x="1290" y="1010.0699999999997"/>
                            <mxPoint x="1290" y="570.0700000000002"/>
                        </Array>
                    </mxGeometry>
                </mxCell>
                <mxCell id="123" value="" style="rhombus;" vertex="1" parent="126">
                    <mxGeometry x="973" y="905.0700000000002" width="30" height="30" as="geometry"/>
                </mxCell>
                <mxCell id="115" style="edgeStyle=orthogonalEdgeStyle;rounded=0;html=1;" edge="1" parent="126" source="117" target="123">
                    <mxGeometry relative="1" as="geometry"/>
                </mxCell>
                <mxCell id="116" value="[else]" style="edgeLabel;html=1;align=center;verticalAlign=middle;resizable=0;points=[];" vertex="1" connectable="0" parent="115">
                    <mxGeometry x="-0.2027" y="1" relative="1" as="geometry">
                        <mxPoint as="offset"/>
                    </mxGeometry>
                </mxCell>
                <mxCell id="118" style="edgeStyle=orthogonalEdgeStyle;rounded=0;html=1;entryX=1;entryY=0.5;entryDx=0;entryDy=0;" edge="1" parent="126" source="119" target="123">
                    <mxGeometry relative="1" as="geometry">
                        <Array as="points">
                            <mxPoint x="1130" y="920.0700000000002"/>
                        </Array>
                    </mxGeometry>
                </mxCell>
                <mxCell id="120" style="edgeStyle=orthogonalEdgeStyle;rounded=0;html=1;entryX=0;entryY=0.5;entryDx=0;entryDy=0;" edge="1" parent="126" source="121" target="123">
                    <mxGeometry relative="1" as="geometry">
                        <Array as="points">
                            <mxPoint x="860" y="920.0700000000002"/>
                        </Array>
                    </mxGeometry>
                </mxCell>
            </root>
        </mxGraphModel>
    </diagram>
</mxfile>